<?xml version="1.0" encoding="UTF-8" standalone="no"?>
<svg
   xmlns:dc="http://purl.org/dc/elements/1.1/"
   xmlns:cc="http://creativecommons.org/ns#"
   xmlns:rdf="http://www.w3.org/1999/02/22-rdf-syntax-ns#"
   xmlns:svg="http://www.w3.org/2000/svg"
   xmlns="http://www.w3.org/2000/svg"
   xmlns:xlink="http://www.w3.org/1999/xlink"
   id="svg8"
   version="1.1"
   viewBox="0 0 32 32"
   height="32"
   width="32">
  <defs
     id="defs2">
    <linearGradient
       id="linearGradient3346">
      <stop
         id="stop3342"
         offset="0"
         style="stop-color:#94b8e0;stop-opacity:1" />
      <stop
         id="stop3344"
         offset="1"
         style="stop-color:#5990cf;stop-opacity:1" />
    </linearGradient>
    <radialGradient
       gradientUnits="userSpaceOnUse"
       r="52"
       fy="445.625"
       fx="422"
       cy="445.625"
       cx="422"
       id="radialGradient3348"
       xlink:href="#linearGradient3346" />
    <radialGradient
       r="38"
       fy="488"
       fx="49"
       cy="488"
       cx="49"
       gradientTransform="matrix(1,0,0,0.3486842,-2,249.96709)"
       gradientUnits="userSpaceOnUse"
       id="radialGradient68155-2-3"
       xlink:href="#linearGradient39563-4-2" />
    <linearGradient
       id="linearGradient39563-4-2">
      <stop
         id="stop39565-1-4"
         offset="0"
         style="stop-color:#ffffff;stop-opacity:1;" />
      <stop
         id="stop39567-7-9"
         offset="1"
         style="stop-color:#ffffff;stop-opacity:0;" />
    </linearGradient>
    <radialGradient
       r="37"
       fy="167.16817"
       fx="47.428951"
       cy="167.16817"
       cx="47.428951"
       gradientTransform="matrix(1.6400361,0,0,0.93359469,-1.06034,157.31584)"
       gradientUnits="userSpaceOnUse"
       id="radialGradient7461"
       xlink:href="#linearGradient39563-4-2" />
    <radialGradient
       r="52"
       fy="445.625"
       fx="422"
       cy="445.625"
       cx="422"
       gradientTransform="translate(113,-217.62499)"
       gradientUnits="userSpaceOnUse"
       id="radialGradient3390-7"
       xlink:href="#linearGradient3346" />
    <radialGradient
       gradientTransform="translate(0,-217.62499)"
       r="52"
       fy="445.625"
       fx="422"
       cy="445.625"
       cx="422"
       gradientUnits="userSpaceOnUse"
       id="radialGradient3377-0"
       xlink:href="#linearGradient3346" />
    <radialGradient
       gradientTransform="translate(0,-217.62499)"
       r="52"
       fy="445.625"
       fx="422"
       cy="445.625"
       cx="422"
       gradientUnits="userSpaceOnUse"
       id="radialGradient3377"
       xlink:href="#linearGradient4688" />
    <linearGradient
       id="linearGradient4688">
      <stop
         style="stop-color:#ae80a9;stop-opacity:1"
         offset="0"
         id="stop4684" />
      <stop
         style="stop-color:#8a5884;stop-opacity:1"
         offset="1"
         id="stop4686" />
    </linearGradient>
    <radialGradient
       r="52"
       fy="445.625"
       fx="422"
       cy="445.625"
       cx="422"
       gradientTransform="translate(113,-217.62499)"
       gradientUnits="userSpaceOnUse"
       id="radialGradient3390"
       xlink:href="#linearGradient4688" />
    <radialGradient
       gradientTransform="translate(0,-217.62499)"
       r="52"
       fy="445.625"
       fx="422"
       cy="445.625"
       cx="422"
       gradientUnits="userSpaceOnUse"
       id="radialGradient3377-9"
       xlink:href="#linearGradient4688-3" />
    <linearGradient
       id="linearGradient4688-3">
      <stop
         style="stop-color:#aca4d5;stop-opacity:1"
         offset="0"
         id="stop4684-7" />
      <stop
         style="stop-color:#7c70bd;stop-opacity:1"
         offset="1"
         id="stop4686-4" />
    </linearGradient>
    <radialGradient
       r="52"
       fy="445.625"
       fx="422"
       cy="445.625"
       cx="422"
       gradientTransform="translate(113,-217.62499)"
       gradientUnits="userSpaceOnUse"
       id="radialGradient3390-5"
       xlink:href="#linearGradient4688-3" />
    <radialGradient
       gradientTransform="translate(0,-217.62499)"
       r="52"
       fy="445.625"
       fx="422"
       cy="445.625"
       cx="422"
       gradientUnits="userSpaceOnUse"
       id="radialGradient3377-6"
       xlink:href="#linearGradient4688-1" />
    <linearGradient
       id="linearGradient4688-1">
      <stop
         style="stop-color:#55c0ad;stop-opacity:1"
         offset="0"
         id="stop4684-5" />
      <stop
         style="stop-color:#369282;stop-opacity:1"
         offset="1"
         id="stop4686-9" />
    </linearGradient>
    <radialGradient
       r="52"
       fy="445.625"
       fx="422"
       cy="445.625"
       cx="422"
       gradientTransform="translate(113,-217.62499)"
       gradientUnits="userSpaceOnUse"
       id="radialGradient3390-4"
       xlink:href="#linearGradient4688-1" />
  </defs>
  <metadata
     id="metadata5">
    <rdf:RDF>
      <cc:Work
         rdf:about="">
        <dc:format>image/svg+xml</dc:format>
        <dc:type
           rdf:resource="http://purl.org/dc/dcmitype/StillImage" />
        <dc:title />
      </cc:Work>
    </rdf:RDF>
  </metadata>
  <g
     transform="translate(-110,-425.62496)"
     id="layer1">
    <g
       style="display:inline;stroke-width:1"
       transform="matrix(2,0,0,2,-412.0004,-660.37504)"
       id="key-layout">
      <rect
         transform="translate(241.0002,217)"
         y="326"
         x="20"
         height="16"
         width="16"
         id="rect11724"
         style="fill:none;stroke:none;stroke-width:1" />
      <path
         id="path11726"
         d="m 265.69612,545.23396 c -3.58218,0 -4.66582,1.39975 -4.66582,1.39975 v 10.04946 c 0,0 1.08364,-1.07673 4.66582,-1.07673 2.9161,0 4.47225,1.07673 7.17818,1.07673 2.08923,0 3.19429,-1.39975 3.19429,-1.39975 v -10.04946 c 0,0 -1.14095,1.04084 -3.23018,1.04084 -3.3734,0 -3.97619,-1.04084 -7.14229,-1.04084 z m 2.93145,2.77148 c 1.32876,0 2.375,1.08037 2.375,2.4375 0,1.35713 -1.04624,2.46875 -2.375,2.46875 -1.32876,0 -2.40625,-1.11162 -2.40625,-2.46875 0,-1.35713 1.07749,-2.4375 2.40625,-2.4375 z m -4.5625,0.96875 0.96875,1.03125 -0.9375,-0.0312 0.9375,1 -0.96875,-0.0312 0.96875,1.03125 -1,-0.0312 0.0312,-1 h -0.0312 l 0.0312,-0.9688 h -0.0312 z m 4.5625,0 c -0.794,0 -1.46875,0.6578 -1.46875,1.46875 0,0.81095 0.67475,1.46875 1.46875,1.46875 0.79399,0 1.4375,-0.6578 1.4375,-1.46875 0,-0.81095 -0.64351,-1.46875 -1.4375,-1.46875 z m 4.375,0 v 1 l 0.0312,0.96875 h -0.0312 l 0.0312,1 -1,0.0312 0.96875,-1.03125 -0.96875,0.0312 0.9375,-1 -0.9375,0.0312 z m -7.9375,2.96875 0.96875,1.03125 -1,-0.0312 z m 6.9375,0 0.0312,1 -1,0.0312 z m -5.9375,1 0.96875,1.03125 -1,-0.0312 z m 4.9375,0 0.0312,1 -1,0.0312 z"
         style="fill:#e5e5e5;fill-opacity:1;stroke:none;stroke-width:1" />
    </g>
  </g>
</svg>
