<?xml version="1.0" encoding="UTF-8" standalone="no"?>
<!-- Created with Inkscape (http://www.inkscape.org/) -->

<svg
   xmlns:dc="http://purl.org/dc/elements/1.1/"
   xmlns:cc="http://creativecommons.org/ns#"
   xmlns:rdf="http://www.w3.org/1999/02/22-rdf-syntax-ns#"
   xmlns:svg="http://www.w3.org/2000/svg"
   xmlns="http://www.w3.org/2000/svg"
   xmlns:sodipodi="http://sodipodi.sourceforge.net/DTD/sodipodi-0.dtd"
   xmlns:inkscape="http://www.inkscape.org/namespaces/inkscape"
   width="18"
   height="18"
   viewBox="0 0 18 18"
   version="1.1"
   id="svg8"
   inkscape:version="0.92.3 (2405546, 2018-03-11)"
   sodipodi:docname="page-indicator-hover.svg">
  <defs
     id="defs2" />
  <sodipodi:namedview
     id="base"
     pagecolor="#353a3b"
     bordercolor="#666666"
     borderopacity="1.0"
     inkscape:pageopacity="0"
     inkscape:pageshadow="2"
     inkscape:zoom="20.055556"
     inkscape:cx="2.604558"
     inkscape:cy="9.2221208"
     inkscape:document-units="px"
     inkscape:current-layer="pan-start-symbolic"
     showgrid="false"
     units="px"
     showborder="true"
     inkscape:window-width="1280"
     inkscape:window-height="970"
     inkscape:window-x="1280"
     inkscape:window-y="25"
     inkscape:window-maximized="1">
    <inkscape:grid
       type="xygrid"
       id="grid5177" />
  </sodipodi:namedview>
  <metadata
     id="metadata5">
    <rdf:RDF>
      <cc:Work
         rdf:about="">
        <dc:format>image/svg+xml</dc:format>
        <dc:type
           rdf:resource="http://purl.org/dc/dcmitype/StillImage" />
        <dc:title></dc:title>
      </cc:Work>
    </rdf:RDF>
  </metadata>
  <g
     inkscape:label="Layer 1"
     inkscape:groupmode="layer"
     id="layer1"
     transform="translate(0,-499.62499)">
    <g
       id="pan-start-symbolic"
       transform="rotate(-90,18,509.62497)"
       inkscape:label="#g5187">
      <path
         style="opacity:0.7;fill:#ffffff;fill-opacity:1;stroke:none;stroke-width:1;stroke-linecap:round;stroke-linejoin:miter;stroke-miterlimit:4;stroke-dasharray:none;stroke-opacity:1"
         d="M 4.1992188 1 C 2.4264188 1 1 2.4264187 1 4.1992188 L 1 13.800781 C 1 15.573581 2.4264187 17 4.1992188 17 L 13.800781 17 C 15.573581 17 17 15.573581 17 13.800781 L 17 4.1992188 C 17 2.4264187 15.573581 1 13.800781 1 L 4.1992188 1 z M 5.4003906 3 L 12.599609 3 C 13.929209 3 15 4.0707906 15 5.4003906 L 15 12.599609 C 15 13.929209 13.929209 15 12.599609 15 L 5.4003906 15 C 4.0707906 15 3 13.929209 3 12.599609 L 3 5.4003906 C 3 4.0707906 4.0707906 3 5.4003906 3 z "
         transform="rotate(90,-231.8125,259.81247)"
         id="rect4804" />
    </g>
  </g>
</svg>
