<?xml version="1.0" encoding="UTF-8" standalone="no"?>
<svg
   xmlns:dc="http://purl.org/dc/elements/1.1/"
   xmlns:cc="http://creativecommons.org/ns#"
   xmlns:rdf="http://www.w3.org/1999/02/22-rdf-syntax-ns#"
   xmlns:svg="http://www.w3.org/2000/svg"
   xmlns="http://www.w3.org/2000/svg"
   id="svg8"
   version="1.1"
   viewBox="0 0 16 16"
   height="16"
   width="16">
  <defs
     id="defs2" />
  <metadata
     id="metadata5">
    <rdf:RDF>
      <cc:Work
         rdf:about="">
        <dc:format>image/svg+xml</dc:format>
        <dc:type
           rdf:resource="http://purl.org/dc/dcmitype/StillImage" />
        <dc:title />
      </cc:Work>
    </rdf:RDF>
  </metadata>
  <g
     transform="translate(-70,-475.62499)"
     id="layer1">
    <g
       transform="rotate(-180,48,491.62498)"
       id="window-close-symbolic">
      <path
         id="path5227"
         transform="rotate(180,48,390.81247)"
         d="m 81.525391,277.98438 c -0.126696,-0.006 -0.261091,0.0395 -0.378907,0.1621 l -3.142578,3.14258 -3.15039,-3.15234 c -0.31781,-0.32886 -0.873815,-0.0938 -0.859375,0.36328 0.004,0.13004 0.0588,0.25335 0.152343,0.34375 l 3.150391,3.15234 -3.150391,3.15039 c -0.328858,0.31781 -0.09382,0.87382 0.363282,0.85938 0.130038,-0.004 0.253348,-0.0588 0.34375,-0.15234 l 3.15039,-3.1504 3.142578,3.14063 c 0.47126,0.4905 1.197532,-0.23577 0.707032,-0.70703 l -3.142578,-3.14063 3.142578,-3.14257 c 0.367879,-0.35345 0.05196,-0.84972 -0.328125,-0.86914 z"
         style="color:#000000;font-style:normal;font-variant:normal;font-weight:normal;font-stretch:normal;font-size:medium;line-height:normal;font-family:sans-serif;font-variant-ligatures:normal;font-variant-position:normal;font-variant-caps:normal;font-variant-numeric:normal;font-variant-alternates:normal;font-feature-settings:normal;text-indent:0;text-align:start;text-decoration:none;text-decoration-line:none;text-decoration-style:solid;text-decoration-color:#000000;letter-spacing:normal;word-spacing:normal;text-transform:none;writing-mode:lr-tb;direction:ltr;text-orientation:mixed;dominant-baseline:auto;baseline-shift:baseline;text-anchor:start;white-space:normal;shape-padding:0;clip-rule:nonzero;display:inline;overflow:visible;visibility:visible;opacity:1;isolation:auto;mix-blend-mode:normal;color-interpolation:sRGB;color-interpolation-filters:linearRGB;solid-color:#000000;solid-opacity:1;vector-effect:none;fill:#000000;fill-opacity:1;fill-rule:nonzero;stroke:none;stroke-width:1px;stroke-linecap:round;stroke-linejoin:miter;stroke-miterlimit:4;stroke-dasharray:none;stroke-dashoffset:0;stroke-opacity:1;color-rendering:auto;image-rendering:auto;shape-rendering:auto;text-rendering:auto;enable-background:accumulate" />
    </g>
  </g>
</svg>
